# xmcd
#
# Track frame offsets:
#	150
#	18582
#	38622
#	57306
#	78423
#	98191
#	118740
#	157468
#	171967
#	201178
#	229505
#	242204
#	276172
#	297512
#
# Disc length: 4388 seconds
#
# Revision: 0
# Processed by: cddbd v1.4PL0 Copyright (c) Steve Scherf et al.
# Submitted via: dBpowerAMP V4.0
#
DISCID=cb11220e
DTITLE=Eddie Clearwater - Chicago Daily Blues
DYEAR=1900
DGENRE=R&B
TTITLE0=2 X 9
TTITLE1=Chicago Daily Blues
TTITLE2=A Little Bit of Blues, A Little Bit of Rock and Roll
TTITLE3=The World Is In A Bad Situation
TTITLE4=Payments On My Woman
TTITLE5=Blast Off
TTITLE6=Came Up The Hard Way
TTITLE7=Nashville Road
TTITLE8=Caldonia
TTITLE9=Chicago Daily Blues
TTITLE10=You Don't Have To Go
TTITLE11=The Things I Used To Do
TTITLE12=The Twist
TTITLE13=Johnny B. Goode
EXTD=
EXTT0=
EXTT1=
EXTT2=
EXTT3=
EXTT4=
EXTT5=
EXTT6=
EXTT7=
EXTT8=
EXTT9=
EXTT10=
EXTT11=
EXTT12=
EXTT13=
PLAYORDER=
